<svg width="46" height="46" viewBox="0 0 46 46" fill="none" xmlns="http://www.w3.org/2000/svg">
<rect x="0.796875" y="0.373047" width="44.8326" height="44.8326" rx="12" fill="url(#paint0_linear_8908_4950)"/>
<path fill-rule="evenodd" clip-rule="evenodd" d="M17.9364 32.186L26.9013 23.2179C28.3149 21.8038 28.3116 19.5106 26.8939 18.1005C25.4822 16.6964 23.2007 16.6985 21.7917 18.1054L12.8182 27.0648C11.4025 28.4783 11.4016 30.772 12.8162 32.1865C14.2302 33.6005 16.5227 33.6003 17.9364 32.186ZM21.7793 20.6608L24.3404 23.2219L25.621 21.9413C26.3282 21.2341 26.3282 20.0874 25.621 19.3802C24.9137 18.673 23.7671 18.673 23.0599 19.3802L21.7793 20.6608Z" fill="white"/>
<path d="M16.3479 12.8463C16.4329 12.5304 16.8811 12.5304 16.9661 12.8463L17.424 14.5469C17.4537 14.6571 17.5398 14.7431 17.6499 14.7728L19.3506 15.2307C19.6664 15.3157 19.6664 15.7639 19.3506 15.849L17.6499 16.3068C17.5398 16.3365 17.4537 16.4226 17.424 16.5327L16.9661 18.2334C16.8811 18.5493 16.4329 18.5493 16.3479 18.2334L15.89 16.5327C15.8603 16.4226 15.7743 16.3365 15.6641 16.3068L13.9635 15.849C13.6476 15.7639 13.6476 15.3157 13.9635 15.2307L15.6641 14.7728C15.7743 14.7431 15.8603 14.6571 15.89 14.5469L16.3479 12.8463Z" fill="white"/>
<path d="M29.1545 11.567C29.2396 11.2511 29.6878 11.2511 29.7728 11.567L30.2307 13.2676C30.2603 13.3778 30.3465 13.4638 30.4566 13.4935L32.1572 13.9514C32.4731 14.0364 32.4731 14.4846 32.1572 14.5697L30.4566 15.0275C30.3465 15.0572 30.2603 15.1433 30.2307 15.2535L29.7728 16.9541C29.6878 17.27 29.2396 17.27 29.1545 16.9541L28.6966 15.2535C28.667 15.1433 28.581 15.0572 28.4707 15.0275L26.7701 14.5697C26.4542 14.4846 26.4542 14.0364 26.7701 13.9514L28.4707 13.4935C28.581 13.4638 28.667 13.3778 28.6966 13.2676L29.1545 11.567Z" fill="white"/>
<path d="M30.4338 23.0944C30.5189 22.7784 30.9671 22.7784 31.0521 23.0944L31.51 24.7949C31.5396 24.9052 31.6258 24.9912 31.7359 25.0208L33.4365 25.4788C33.7524 25.5638 33.7524 26.012 33.4365 26.097L31.7359 26.5549C31.6258 26.5845 31.5396 26.6706 31.51 26.7808L31.0521 28.4814C30.9671 28.7973 30.5189 28.7973 30.4338 28.4814L29.9759 26.7808C29.9463 26.6706 29.8603 26.5845 29.75 26.5549L28.0494 26.097C27.7335 26.012 27.7335 25.5638 28.0494 25.4788L29.75 25.0208C29.8603 24.9912 29.9463 24.9052 29.9759 24.7949L30.4338 23.0944Z" fill="white"/>
<defs>
<linearGradient id="paint0_linear_8908_4950" x1="51.6072" y1="16.8117" x2="-2.19197" y2="27.2726" gradientUnits="userSpaceOnUse">
<stop stop-color="#4080F6"/>
<stop offset="1" stop-color="#A356F7"/>
</linearGradient>
</defs>
</svg>
