<svg width="193" height="46" viewBox="0 0 193 46" fill="none" xmlns="http://www.w3.org/2000/svg">
<path d="M64.844 22.242C63.7147 22.242 62.6587 22.0367 61.676 21.626C60.708 21.2153 59.8573 20.6507 59.124 19.932C58.3907 19.1987 57.8187 18.348 57.408 17.38C57.012 16.3973 56.814 15.3487 56.814 14.234C56.814 13.1193 57.012 12.0853 57.408 11.132C57.8187 10.164 58.3833 9.32067 59.102 8.602C59.8353 7.86867 60.686 7.304 61.654 6.908C62.622 6.49733 63.6707 6.292 64.8 6.292C65.9293 6.292 66.978 6.49733 67.946 6.908C68.914 7.304 69.7647 7.86867 70.498 8.602C71.2313 9.32067 71.796 10.164 72.192 11.132C72.6027 12.1 72.808 13.1413 72.808 14.256C72.808 15.3707 72.6027 16.412 72.192 17.38C71.796 18.348 71.2313 19.1987 70.498 19.932C69.7793 20.6507 68.936 21.2153 67.968 21.626C67 22.0367 65.9587 22.242 64.844 22.242ZM71.818 23.144L64.734 16.06L66.538 14.234L73.644 21.34L71.818 23.144ZM64.8 19.448C65.7827 19.448 66.6407 19.228 67.374 18.788C68.122 18.348 68.7013 17.7393 69.112 16.962C69.5373 16.1847 69.75 15.2753 69.75 14.234C69.75 13.4713 69.6253 12.7747 69.376 12.144C69.1413 11.5133 68.804 10.9707 68.364 10.516C67.924 10.0467 67.4033 9.68733 66.802 9.438C66.2007 9.18867 65.5333 9.064 64.8 9.064C63.832 9.064 62.974 9.284 62.226 9.724C61.4927 10.1493 60.9133 10.7507 60.488 11.528C60.0773 12.3053 59.872 13.2073 59.872 14.234C59.872 15.0113 59.9893 15.7227 60.224 16.368C60.4733 17.0133 60.8107 17.5633 61.236 18.018C61.676 18.4727 62.1967 18.8247 62.798 19.074C63.414 19.3233 64.0813 19.448 64.8 19.448ZM79.8549 22.22C78.9162 22.22 78.0802 22.022 77.3469 21.626C76.6282 21.23 76.0635 20.68 75.6529 19.976C75.2422 19.272 75.0369 18.458 75.0369 17.534V11.374H77.9409V17.468C77.9409 17.908 78.0142 18.2893 78.1609 18.612C78.3075 18.92 78.5275 19.1547 78.8209 19.316C79.1142 19.4773 79.4589 19.558 79.8549 19.558C80.4562 19.558 80.9255 19.3747 81.2629 19.008C81.6002 18.6413 81.7689 18.128 81.7689 17.468V11.374H84.6509V17.534C84.6509 18.4727 84.4455 19.294 84.0349 19.998C83.6389 20.702 83.0742 21.252 82.3409 21.648C81.6222 22.0293 80.7935 22.22 79.8549 22.22ZM86.9459 22V11.374H89.8499V22L86.9459 22ZM88.3979 9.658C87.9286 9.658 87.5399 9.504 87.2319 9.196C86.9239 8.87333 86.7699 8.47733 86.7699 8.008C86.7699 7.55333 86.9239 7.16467 87.2319 6.842C87.5399 6.51933 87.9286 6.358 88.3979 6.358C88.8819 6.358 89.2706 6.51933 89.5639 6.842C89.8719 7.16467 90.0259 7.55333 90.0259 8.008C90.0259 8.47733 89.8719 8.87333 89.5639 9.196C89.2706 9.504 88.8819 9.658 88.3979 9.658ZM97.419 22.22C96.3336 22.22 95.3583 21.978 94.493 21.494C93.6276 21.01 92.9456 20.35 92.447 19.514C91.9483 18.678 91.699 17.7393 91.699 16.698C91.699 15.642 91.9483 14.696 92.447 13.86C92.9456 13.024 93.6276 12.364 94.493 11.88C95.373 11.3813 96.3483 11.132 97.419 11.132C98.255 11.132 99.025 11.286 99.729 11.594C100.433 11.902 101.042 12.342 101.555 12.914L99.707 14.784C99.4283 14.476 99.091 14.2413 98.695 14.08C98.3136 13.9187 97.8883 13.838 97.419 13.838C96.891 13.838 96.4143 13.9627 95.989 14.212C95.5783 14.4467 95.2483 14.7767 94.999 15.202C94.7643 15.6127 94.647 16.104 94.647 16.676C94.647 17.2333 94.7643 17.732 94.999 18.172C95.2483 18.5973 95.5783 18.9347 95.989 19.184C96.4143 19.4187 96.891 19.536 97.419 19.536C97.903 19.536 98.3356 19.4553 98.717 19.294C99.113 19.118 99.4503 18.8687 99.729 18.546L101.599 20.416C101.056 21.0027 100.433 21.45 99.729 21.758C99.025 22.066 98.255 22.22 97.419 22.22ZM110.007 22L105.893 16.522L109.985 11.374H113.307L108.511 17.182L108.621 15.774L113.527 22H110.007ZM103.231 22V6.094H106.113V22H103.231ZM122.312 22.22C121.212 22.22 120.178 22.022 119.21 21.626C118.257 21.2153 117.413 20.6433 116.68 19.91C115.961 19.1767 115.397 18.3333 114.986 17.38C114.59 16.412 114.392 15.3707 114.392 14.256C114.392 13.1267 114.597 12.0853 115.008 11.132C115.419 10.164 115.991 9.32067 116.724 8.602C117.457 7.86867 118.315 7.304 119.298 6.908C120.281 6.49733 121.344 6.292 122.488 6.292C123.764 6.292 124.937 6.534 126.008 7.018C127.079 7.48733 127.966 8.15467 128.67 9.02L126.646 11.044C126.162 10.4133 125.561 9.92933 124.842 9.592C124.123 9.25467 123.331 9.086 122.466 9.086C121.483 9.086 120.611 9.306 119.848 9.746C119.1 10.1713 118.513 10.7727 118.088 11.55C117.663 12.3127 117.45 13.2073 117.45 14.234C117.45 15.2607 117.655 16.17 118.066 16.962C118.491 17.7393 119.063 18.348 119.782 18.788C120.515 19.228 121.351 19.448 122.29 19.448C123.258 19.448 124.087 19.272 124.776 18.92C125.465 18.5533 125.993 18.0253 126.36 17.336C126.727 16.632 126.91 15.774 126.91 14.762L128.868 16.104L122.114 16.038V13.442H129.99V13.86C129.99 15.708 129.66 17.2553 129 18.502C128.34 19.734 127.431 20.6653 126.272 21.296C125.128 21.912 123.808 22.22 122.312 22.22ZM134.485 16.258V13.816L138.071 13.816C138.541 13.816 138.966 13.7207 139.347 13.53C139.729 13.3393 140.029 13.068 140.249 12.716C140.469 12.3493 140.579 11.9093 140.579 11.396C140.579 10.8973 140.469 10.4647 140.249 10.098C140.029 9.73133 139.729 9.45267 139.347 9.262C138.966 9.07133 138.541 8.976 138.071 8.976L134.485 8.976V6.534H138.379C139.362 6.534 140.242 6.732 141.019 7.128C141.811 7.524 142.435 8.08867 142.889 8.822C143.344 9.54067 143.571 10.3987 143.571 11.396C143.571 12.3933 143.344 13.2587 142.889 13.992C142.435 14.7107 141.811 15.268 141.019 15.664C140.242 16.06 139.362 16.258 138.379 16.258H134.485ZM132.285 22V6.534H135.277V22H132.285ZM149.326 22V6.864H152.34V22L149.326 22ZM144.398 9.196V6.534H157.268V9.196H144.398Z" fill="white"/>
<path d="M57.148 40V30.284H58.464V40H57.148ZM65.2374 40V36.122C65.2374 35.618 65.0787 35.2027 64.7614 34.876C64.444 34.5493 64.0334 34.386 63.5294 34.386C63.1934 34.386 62.8947 34.4607 62.6334 34.61C62.372 34.7593 62.1667 34.9647 62.0174 35.226C61.868 35.4873 61.7934 35.786 61.7934 36.122L61.2754 35.828C61.2754 35.324 61.3874 34.876 61.6114 34.484C61.8354 34.092 62.148 33.784 62.5494 33.56C62.9507 33.3267 63.4034 33.21 63.9074 33.21C64.4114 33.21 64.8547 33.336 65.2374 33.588C65.6294 33.84 65.9374 34.1713 66.1614 34.582C66.3854 34.9833 66.4974 35.4127 66.4974 35.87V40H65.2374ZM60.5334 40V33.35H61.7934V40H60.5334ZM69.1433 40V30.564H70.4033V40H69.1433ZM67.5053 34.498V33.35H72.0413V34.498H67.5053ZM76.1505 40.14C75.4878 40.14 74.8905 39.9907 74.3585 39.692C73.8265 39.384 73.4065 38.9687 73.0985 38.446C72.7905 37.9233 72.6365 37.3307 72.6365 36.668C72.6365 36.0147 72.7858 35.4267 73.0845 34.904C73.3925 34.3813 73.8032 33.9707 74.3165 33.672C74.8392 33.364 75.4225 33.21 76.0665 33.21C76.6825 33.21 77.2238 33.35 77.6905 33.63C78.1665 33.91 78.5352 34.2973 78.7965 34.792C79.0672 35.2867 79.2025 35.8467 79.2025 36.472C79.2025 36.5653 79.1978 36.668 79.1885 36.78C79.1792 36.8827 79.1605 37.004 79.1325 37.144H73.5185V36.094H78.4605L77.9985 36.5C77.9985 36.052 77.9192 35.674 77.7605 35.366C77.6018 35.0487 77.3778 34.806 77.0885 34.638C76.7992 34.4607 76.4492 34.372 76.0385 34.372C75.6092 34.372 75.2312 34.4653 74.9045 34.652C74.5778 34.8387 74.3258 35.1 74.1485 35.436C73.9712 35.772 73.8825 36.1687 73.8825 36.626C73.8825 37.0927 73.9758 37.5033 74.1625 37.858C74.3492 38.2033 74.6152 38.474 74.9605 38.67C75.3058 38.8567 75.7025 38.95 76.1505 38.95C76.5238 38.95 76.8645 38.8847 77.1725 38.754C77.4898 38.6233 77.7605 38.4273 77.9845 38.166L78.7965 38.992C78.4792 39.3653 78.0872 39.65 77.6205 39.846C77.1632 40.042 76.6732 40.14 76.1505 40.14ZM80.5763 40V30.004H81.8363V40H80.5763ZM83.6799 40V30.004H84.9399V40H83.6799ZM86.7974 40V33.35H88.0574V40H86.7974ZM87.4274 32.02C87.194 32.02 87.0027 31.9453 86.8534 31.796C86.704 31.6373 86.6294 31.4413 86.6294 31.208C86.6294 30.984 86.704 30.7973 86.8534 30.648C87.0027 30.4893 87.194 30.41 87.4274 30.41C87.6607 30.41 87.852 30.4893 88.0014 30.648C88.1507 30.7973 88.2254 30.984 88.2254 31.208C88.2254 31.4413 88.1507 31.6373 88.0014 31.796C87.852 31.9453 87.6607 32.02 87.4274 32.02ZM92.6722 42.926C91.9909 42.926 91.3842 42.8 90.8522 42.548C90.3296 42.296 89.9096 41.9413 89.5922 41.484L90.4042 40.658C90.6749 41.0033 90.9969 41.2647 91.3702 41.442C91.7436 41.6287 92.1869 41.722 92.7002 41.722C93.3816 41.722 93.9182 41.54 94.3102 41.176C94.7116 40.8213 94.9122 40.3407 94.9122 39.734V38.082L95.1362 36.584L94.9122 35.1V33.35H96.1722V39.734C96.1722 40.3687 96.0229 40.924 95.7242 41.4C95.4349 41.876 95.0242 42.2493 94.4922 42.52C93.9696 42.7907 93.3629 42.926 92.6722 42.926ZM92.6722 39.888C92.0656 39.888 91.5196 39.7433 91.0342 39.454C90.5582 39.1647 90.1802 38.768 89.9002 38.264C89.6202 37.7507 89.4802 37.1767 89.4802 36.542C89.4802 35.9073 89.6202 35.3427 89.9002 34.848C90.1802 34.344 90.5582 33.9473 91.0342 33.658C91.5196 33.3593 92.0656 33.21 92.6722 33.21C93.1949 33.21 93.6569 33.3127 94.0582 33.518C94.4596 33.7233 94.7769 34.0127 95.0102 34.386C95.2529 34.75 95.3836 35.1793 95.4022 35.674V37.438C95.3742 37.9233 95.2389 38.3527 94.9962 38.726C94.7629 39.09 94.4456 39.3747 94.0442 39.58C93.6429 39.7853 93.1856 39.888 92.6722 39.888ZM92.9242 38.698C93.3349 38.698 93.6942 38.6093 94.0022 38.432C94.3196 38.2547 94.5622 38.0073 94.7302 37.69C94.8982 37.3633 94.9822 36.9853 94.9822 36.556C94.9822 36.1267 94.8936 35.7533 94.7162 35.436C94.5482 35.1093 94.3102 34.8573 94.0022 34.68C93.6942 34.4933 93.3302 34.4 92.9102 34.4C92.4902 34.4 92.1216 34.4933 91.8042 34.68C91.4869 34.8573 91.2349 35.1093 91.0482 35.436C90.8709 35.7533 90.7822 36.122 90.7822 36.542C90.7822 36.962 90.8709 37.3353 91.0482 37.662C91.2349 37.9887 91.4869 38.2453 91.8042 38.432C92.1309 38.6093 92.5042 38.698 92.9242 38.698ZM101.102 40.14C100.439 40.14 99.8417 39.9907 99.3097 39.692C98.7777 39.384 98.3577 38.9687 98.0497 38.446C97.7417 37.9233 97.5877 37.3307 97.5877 36.668C97.5877 36.0147 97.737 35.4267 98.0357 34.904C98.3437 34.3813 98.7543 33.9707 99.2677 33.672C99.7903 33.364 100.374 33.21 101.018 33.21C101.634 33.21 102.175 33.35 102.642 33.63C103.118 33.91 103.486 34.2973 103.748 34.792C104.018 35.2867 104.154 35.8467 104.154 36.472C104.154 36.5653 104.149 36.668 104.14 36.78C104.13 36.8827 104.112 37.004 104.084 37.144H98.4697V36.094H103.412L102.95 36.5C102.95 36.052 102.87 35.674 102.712 35.366C102.553 35.0487 102.329 34.806 102.04 34.638C101.75 34.4607 101.4 34.372 100.99 34.372C100.56 34.372 100.182 34.4653 99.8557 34.652C99.529 34.8387 99.277 35.1 99.0997 35.436C98.9223 35.772 98.8337 36.1687 98.8337 36.626C98.8337 37.0927 98.927 37.5033 99.1137 37.858C99.3003 38.2033 99.5663 38.474 99.9117 38.67C100.257 38.8567 100.654 38.95 101.102 38.95C101.475 38.95 101.816 38.8847 102.124 38.754C102.441 38.6233 102.712 38.4273 102.936 38.166L103.748 38.992C103.43 39.3653 103.038 39.65 102.572 39.846C102.114 40.042 101.624 40.14 101.102 40.14ZM110.232 40V36.122C110.232 35.618 110.073 35.2027 109.756 34.876C109.438 34.5493 109.028 34.386 108.524 34.386C108.188 34.386 107.889 34.4607 107.628 34.61C107.366 34.7593 107.161 34.9647 107.012 35.226C106.862 35.4873 106.788 35.786 106.788 36.122L106.27 35.828C106.27 35.324 106.382 34.876 106.606 34.484C106.83 34.092 107.142 33.784 107.544 33.56C107.945 33.3267 108.398 33.21 108.902 33.21C109.406 33.21 109.849 33.336 110.232 33.588C110.624 33.84 110.932 34.1713 111.156 34.582C111.38 34.9833 111.492 35.4127 111.492 35.87V40H110.232ZM105.528 40V33.35H106.788V40H105.528ZM114.137 40V30.564H115.397V40H114.137ZM112.499 34.498V33.35H117.035V34.498H112.499ZM120.295 40L124.271 30.284H125.223L129.185 40H127.757L124.495 31.782H124.985L121.695 40H120.295ZM122.185 37.802V36.654H127.295V37.802H122.185ZM130.648 40V30.284H131.964V40H130.648ZM136.059 40L140.035 30.284H140.987L144.949 40H143.521L140.259 31.782H140.749L137.459 40H136.059ZM137.949 37.802V36.654H143.059V37.802H137.949ZM148.411 40.14C148.038 40.14 147.683 40.0933 147.347 40C147.02 39.8973 146.717 39.7573 146.437 39.58C146.157 39.3933 145.914 39.174 145.709 38.922L146.521 38.11C146.764 38.4087 147.044 38.6327 147.361 38.782C147.678 38.922 148.033 38.992 148.425 38.992C148.817 38.992 149.12 38.9267 149.335 38.796C149.55 38.656 149.657 38.4647 149.657 38.222C149.657 37.9793 149.568 37.7927 149.391 37.662C149.223 37.522 149.004 37.41 148.733 37.326C148.462 37.2327 148.173 37.144 147.865 37.06C147.566 36.9667 147.282 36.85 147.011 36.71C146.74 36.57 146.516 36.3787 146.339 36.136C146.171 35.8933 146.087 35.5713 146.087 35.17C146.087 34.7687 146.185 34.4233 146.381 34.134C146.577 33.8353 146.848 33.6067 147.193 33.448C147.548 33.2893 147.972 33.21 148.467 33.21C148.99 33.21 149.452 33.3033 149.853 33.49C150.264 33.6673 150.6 33.938 150.861 34.302L150.049 35.114C149.862 34.8713 149.629 34.6847 149.349 34.554C149.078 34.4233 148.77 34.358 148.425 34.358C148.061 34.358 147.781 34.4233 147.585 34.554C147.398 34.6753 147.305 34.848 147.305 35.072C147.305 35.296 147.389 35.4687 147.557 35.59C147.725 35.7113 147.944 35.814 148.215 35.898C148.495 35.982 148.784 36.0707 149.083 36.164C149.382 36.248 149.666 36.3647 149.937 36.514C150.208 36.6633 150.427 36.864 150.595 37.116C150.772 37.368 150.861 37.6993 150.861 38.11C150.861 38.7353 150.637 39.23 150.189 39.594C149.75 39.958 149.158 40.14 148.411 40.14ZM154.386 40.14C154.012 40.14 153.658 40.0933 153.322 40C152.995 39.8973 152.692 39.7573 152.412 39.58C152.132 39.3933 151.889 39.174 151.684 38.922L152.496 38.11C152.738 38.4087 153.018 38.6327 153.336 38.782C153.653 38.922 154.008 38.992 154.4 38.992C154.792 38.992 155.095 38.9267 155.31 38.796C155.524 38.656 155.632 38.4647 155.632 38.222C155.632 37.9793 155.543 37.7927 155.366 37.662C155.198 37.522 154.978 37.41 154.708 37.326C154.437 37.2327 154.148 37.144 153.84 37.06C153.541 36.9667 153.256 36.85 152.986 36.71C152.715 36.57 152.491 36.3787 152.314 36.136C152.146 35.8933 152.062 35.5713 152.062 35.17C152.062 34.7687 152.16 34.4233 152.356 34.134C152.552 33.8353 152.822 33.6067 153.168 33.448C153.522 33.2893 153.947 33.21 154.442 33.21C154.964 33.21 155.426 33.3033 155.828 33.49C156.238 33.6673 156.574 33.938 156.836 34.302L156.024 35.114C155.837 34.8713 155.604 34.6847 155.324 34.554C155.053 34.4233 154.745 34.358 154.4 34.358C154.036 34.358 153.756 34.4233 153.56 34.554C153.373 34.6753 153.28 34.848 153.28 35.072C153.28 35.296 153.364 35.4687 153.532 35.59C153.7 35.7113 153.919 35.814 154.19 35.898C154.47 35.982 154.759 36.0707 155.058 36.164C155.356 36.248 155.641 36.3647 155.912 36.514C156.182 36.6633 156.402 36.864 156.57 37.116C156.747 37.368 156.836 37.6993 156.836 38.11C156.836 38.7353 156.612 39.23 156.164 39.594C155.725 39.958 155.132 40.14 154.386 40.14ZM158.26 40V33.35H159.52V40H158.26ZM158.89 32.02C158.657 32.02 158.466 31.9453 158.316 31.796C158.167 31.6373 158.092 31.4413 158.092 31.208C158.092 30.984 158.167 30.7973 158.316 30.648C158.466 30.4893 158.657 30.41 158.89 30.41C159.124 30.41 159.315 30.4893 159.464 30.648C159.614 30.7973 159.688 30.984 159.688 31.208C159.688 31.4413 159.614 31.6373 159.464 31.796C159.315 31.9453 159.124 32.02 158.89 32.02ZM163.491 40.14C163.118 40.14 162.763 40.0933 162.427 40C162.1 39.8973 161.797 39.7573 161.517 39.58C161.237 39.3933 160.994 39.174 160.789 38.922L161.601 38.11C161.844 38.4087 162.124 38.6327 162.441 38.782C162.758 38.922 163.113 38.992 163.505 38.992C163.897 38.992 164.2 38.9267 164.415 38.796C164.63 38.656 164.737 38.4647 164.737 38.222C164.737 37.9793 164.648 37.7927 164.471 37.662C164.303 37.522 164.084 37.41 163.813 37.326C163.542 37.2327 163.253 37.144 162.945 37.06C162.646 36.9667 162.362 36.85 162.091 36.71C161.82 36.57 161.596 36.3787 161.419 36.136C161.251 35.8933 161.167 35.5713 161.167 35.17C161.167 34.7687 161.265 34.4233 161.461 34.134C161.657 33.8353 161.928 33.6067 162.273 33.448C162.628 33.2893 163.052 33.21 163.547 33.21C164.07 33.21 164.532 33.3033 164.933 33.49C165.344 33.6673 165.68 33.938 165.941 34.302L165.129 35.114C164.942 34.8713 164.709 34.6847 164.429 34.554C164.158 34.4233 163.85 34.358 163.505 34.358C163.141 34.358 162.861 34.4233 162.665 34.554C162.478 34.6753 162.385 34.848 162.385 35.072C162.385 35.296 162.469 35.4687 162.637 35.59C162.805 35.7113 163.024 35.814 163.295 35.898C163.575 35.982 163.864 36.0707 164.163 36.164C164.462 36.248 164.746 36.3647 165.017 36.514C165.288 36.6633 165.507 36.864 165.675 37.116C165.852 37.368 165.941 37.6993 165.941 38.11C165.941 38.7353 165.717 39.23 165.269 39.594C164.83 39.958 164.238 40.14 163.491 40.14ZM168.374 40V30.564H169.634V40H168.374ZM166.736 34.498V33.35H171.272V34.498H166.736ZM175.129 40.14C174.522 40.14 173.972 39.9907 173.477 39.692C172.982 39.384 172.59 38.9687 172.301 38.446C172.021 37.9233 171.881 37.3353 171.881 36.682C171.881 36.0287 172.021 35.4407 172.301 34.918C172.59 34.3953 172.978 33.98 173.463 33.672C173.958 33.364 174.513 33.21 175.129 33.21C175.633 33.21 176.081 33.3173 176.473 33.532C176.874 33.7373 177.196 34.0267 177.439 34.4C177.682 34.764 177.817 35.1887 177.845 35.674V37.676C177.817 38.152 177.682 38.5767 177.439 38.95C177.206 39.3233 176.888 39.6173 176.487 39.832C176.095 40.0373 175.642 40.14 175.129 40.14ZM175.339 38.95C175.964 38.95 176.468 38.74 176.851 38.32C177.234 37.8907 177.425 37.3447 177.425 36.682C177.425 36.2247 177.336 35.828 177.159 35.492C176.991 35.1467 176.748 34.8807 176.431 34.694C176.114 34.498 175.745 34.4 175.325 34.4C174.905 34.4 174.532 34.498 174.205 34.694C173.888 34.89 173.636 35.1607 173.449 35.506C173.272 35.842 173.183 36.2293 173.183 36.668C173.183 37.116 173.272 37.5127 173.449 37.858C173.636 38.194 173.892 38.46 174.219 38.656C174.546 38.852 174.919 38.95 175.339 38.95ZM177.341 40V38.208L177.579 36.584L177.341 34.974V33.35H178.615V40H177.341ZM185.153 40V36.122C185.153 35.618 184.995 35.2027 184.677 34.876C184.36 34.5493 183.949 34.386 183.445 34.386C183.109 34.386 182.811 34.4607 182.549 34.61C182.288 34.7593 182.083 34.9647 181.933 35.226C181.784 35.4873 181.709 35.786 181.709 36.122L181.191 35.828C181.191 35.324 181.303 34.876 181.527 34.484C181.751 34.092 182.064 33.784 182.465 33.56C182.867 33.3267 183.319 33.21 183.823 33.21C184.327 33.21 184.771 33.336 185.153 33.588C185.545 33.84 185.853 34.1713 186.077 34.582C186.301 34.9833 186.413 35.4127 186.413 35.87V40H185.153ZM180.449 40V33.35H181.709V40H180.449ZM189.059 40V30.564H190.319V40H189.059ZM187.421 34.498V33.35H191.957V34.498H187.421Z" fill="#E6CCFF"/>
<rect x="0.796875" y="0.373047" width="44.8326" height="44.8326" rx="12" fill="url(#paint0_linear_8961_4661)"/>
<path fill-rule="evenodd" clip-rule="evenodd" d="M17.9364 32.186L26.9013 23.2179C28.3149 21.8038 28.3116 19.5106 26.8939 18.1005C25.4822 16.6964 23.2007 16.6985 21.7917 18.1054L12.8182 27.0648C11.4025 28.4783 11.4016 30.772 12.8162 32.1865C14.2302 33.6005 16.5227 33.6003 17.9364 32.186ZM21.7793 20.6608L24.3404 23.2219L25.621 21.9413C26.3282 21.2341 26.3282 20.0874 25.621 19.3802C24.9137 18.673 23.7671 18.673 23.0599 19.3802L21.7793 20.6608Z" fill="white"/>
<path d="M16.3479 12.8463C16.4329 12.5304 16.8811 12.5304 16.9661 12.8463L17.424 14.5469C17.4537 14.6571 17.5398 14.7431 17.6499 14.7728L19.3506 15.2307C19.6664 15.3157 19.6664 15.7639 19.3506 15.849L17.6499 16.3068C17.5398 16.3365 17.4537 16.4226 17.424 16.5327L16.9661 18.2334C16.8811 18.5493 16.4329 18.5493 16.3479 18.2334L15.89 16.5327C15.8603 16.4226 15.7743 16.3365 15.6641 16.3068L13.9635 15.849C13.6476 15.7639 13.6476 15.3157 13.9635 15.2307L15.6641 14.7728C15.7743 14.7431 15.8603 14.6571 15.89 14.5469L16.3479 12.8463Z" fill="white"/>
<path d="M29.1545 11.567C29.2396 11.2511 29.6878 11.2511 29.7728 11.567L30.2307 13.2676C30.2603 13.3778 30.3465 13.4638 30.4566 13.4935L32.1572 13.9514C32.4731 14.0364 32.4731 14.4846 32.1572 14.5697L30.4566 15.0275C30.3465 15.0572 30.2603 15.1433 30.2307 15.2535L29.7728 16.9541C29.6878 17.27 29.2396 17.27 29.1545 16.9541L28.6966 15.2535C28.667 15.1433 28.581 15.0572 28.4707 15.0275L26.7701 14.5697C26.4542 14.4846 26.4542 14.0364 26.7701 13.9514L28.4707 13.4935C28.581 13.4638 28.667 13.3778 28.6966 13.2676L29.1545 11.567Z" fill="white"/>
<path d="M30.4338 23.0944C30.5189 22.7784 30.9671 22.7784 31.0521 23.0944L31.51 24.7949C31.5396 24.9052 31.6258 24.9912 31.7359 25.0208L33.4365 25.4788C33.7524 25.5638 33.7524 26.012 33.4365 26.097L31.7359 26.5549C31.6258 26.5845 31.5396 26.6706 31.51 26.7808L31.0521 28.4814C30.9671 28.7973 30.5189 28.7973 30.4338 28.4814L29.9759 26.7808C29.9463 26.6706 29.8603 26.5845 29.75 26.5549L28.0494 26.097C27.7335 26.012 27.7335 25.5638 28.0494 25.4788L29.75 25.0208C29.8603 24.9912 29.9463 24.9052 29.9759 24.7949L30.4338 23.0944Z" fill="white"/>
<defs>
<linearGradient id="paint0_linear_8961_4661" x1="51.6072" y1="16.8117" x2="-2.19197" y2="27.2726" gradientUnits="userSpaceOnUse">
<stop stop-color="#4080F6"/>
<stop offset="1" stop-color="#A356F7"/>
</linearGradient>
</defs>
</svg>
