<svg width="193" height="46" viewBox="0 0 193 46" fill="none" xmlns="http://www.w3.org/2000/svg">
<path d="M64.0471 22.242C62.9178 22.242 61.8618 22.0367 60.8791 21.626C59.9111 21.2153 59.0605 20.6507 58.3271 19.932C57.5938 19.1987 57.0218 18.348 56.6111 17.38C56.2151 16.3973 56.0171 15.3487 56.0171 14.234C56.0171 13.1193 56.2151 12.0853 56.6111 11.132C57.0218 10.164 57.5865 9.32067 58.3051 8.602C59.0385 7.86867 59.8891 7.304 60.8571 6.908C61.8251 6.49733 62.8738 6.292 64.0031 6.292C65.1325 6.292 66.1811 6.49733 67.1491 6.908C68.1171 7.304 68.9678 7.86867 69.7011 8.602C70.4345 9.32067 70.9991 10.164 71.3951 11.132C71.8058 12.1 72.0111 13.1413 72.0111 14.256C72.0111 15.3707 71.8058 16.412 71.3951 17.38C70.9991 18.348 70.4345 19.1987 69.7011 19.932C68.9825 20.6507 68.1391 21.2153 67.1711 21.626C66.2031 22.0367 65.1618 22.242 64.0471 22.242ZM71.0211 23.144L63.9371 16.06L65.7411 14.234L72.8471 21.34L71.0211 23.144ZM64.0031 19.448C64.9858 19.448 65.8438 19.228 66.5771 18.788C67.3251 18.348 67.9045 17.7393 68.3151 16.962C68.7405 16.1847 68.9531 15.2753 68.9531 14.234C68.9531 13.4713 68.8285 12.7747 68.5791 12.144C68.3445 11.5133 68.0071 10.9707 67.5671 10.516C67.1271 10.0467 66.6065 9.68733 66.0051 9.438C65.4038 9.18867 64.7365 9.064 64.0031 9.064C63.0351 9.064 62.1771 9.284 61.4291 9.724C60.6958 10.1493 60.1165 10.7507 59.6911 11.528C59.2805 12.3053 59.0751 13.2073 59.0751 14.234C59.0751 15.0113 59.1925 15.7227 59.4271 16.368C59.6765 17.0133 60.0138 17.5633 60.4391 18.018C60.8791 18.4727 61.3998 18.8247 62.0011 19.074C62.6171 19.3233 63.2845 19.448 64.0031 19.448ZM79.058 22.22C78.1193 22.22 77.2833 22.022 76.55 21.626C75.8313 21.23 75.2667 20.68 74.856 19.976C74.4453 19.272 74.24 18.458 74.24 17.534V11.374H77.144V17.468C77.144 17.908 77.2173 18.2893 77.364 18.612C77.5107 18.92 77.7307 19.1547 78.024 19.316C78.3173 19.4773 78.662 19.558 79.058 19.558C79.6593 19.558 80.1287 19.3747 80.466 19.008C80.8033 18.6413 80.972 18.128 80.972 17.468V11.374H83.854V17.534C83.854 18.4727 83.6487 19.294 83.238 19.998C82.842 20.702 82.2773 21.252 81.544 21.648C80.8253 22.0293 79.9967 22.22 79.058 22.22ZM86.149 22V11.374H89.053V22L86.149 22ZM87.601 9.658C87.1317 9.658 86.743 9.504 86.435 9.196C86.127 8.87333 85.973 8.47733 85.973 8.008C85.973 7.55333 86.127 7.16467 86.435 6.842C86.743 6.51933 87.1317 6.358 87.601 6.358C88.085 6.358 88.4737 6.51933 88.767 6.842C89.075 7.16467 89.229 7.55333 89.229 8.008C89.229 8.47733 89.075 8.87333 88.767 9.196C88.4737 9.504 88.085 9.658 87.601 9.658ZM96.6221 22.22C95.5367 22.22 94.5614 21.978 93.6961 21.494C92.8307 21.01 92.1487 20.35 91.6501 19.514C91.1514 18.678 90.9021 17.7393 90.9021 16.698C90.9021 15.642 91.1514 14.696 91.6501 13.86C92.1487 13.024 92.8307 12.364 93.6961 11.88C94.5761 11.3813 95.5514 11.132 96.6221 11.132C97.4581 11.132 98.2281 11.286 98.9321 11.594C99.6361 11.902 100.245 12.342 100.758 12.914L98.9101 14.784C98.6314 14.476 98.2941 14.2413 97.8981 14.08C97.5167 13.9187 97.0914 13.838 96.6221 13.838C96.0941 13.838 95.6174 13.9627 95.1921 14.212C94.7814 14.4467 94.4514 14.7767 94.2021 15.202C93.9674 15.6127 93.8501 16.104 93.8501 16.676C93.8501 17.2333 93.9674 17.732 94.2021 18.172C94.4514 18.5973 94.7814 18.9347 95.1921 19.184C95.6174 19.4187 96.0941 19.536 96.6221 19.536C97.1061 19.536 97.5387 19.4553 97.9201 19.294C98.3161 19.118 98.6534 18.8687 98.9321 18.546L100.802 20.416C100.259 21.0027 99.6361 21.45 98.9321 21.758C98.2281 22.066 97.4581 22.22 96.6221 22.22ZM109.21 22L105.096 16.522L109.188 11.374H112.51L107.714 17.182L107.824 15.774L112.73 22H109.21ZM102.434 22V6.094H105.316V22H102.434ZM121.515 22.22C120.415 22.22 119.381 22.022 118.413 21.626C117.46 21.2153 116.617 20.6433 115.883 19.91C115.165 19.1767 114.6 18.3333 114.189 17.38C113.793 16.412 113.595 15.3707 113.595 14.256C113.595 13.1267 113.801 12.0853 114.211 11.132C114.622 10.164 115.194 9.32067 115.927 8.602C116.661 7.86867 117.519 7.304 118.501 6.908C119.484 6.49733 120.547 6.292 121.691 6.292C122.967 6.292 124.141 6.534 125.211 7.018C126.282 7.48733 127.169 8.15467 127.873 9.02L125.849 11.044C125.365 10.4133 124.764 9.92933 124.045 9.592C123.327 9.25467 122.535 9.086 121.669 9.086C120.687 9.086 119.814 9.306 119.051 9.746C118.303 10.1713 117.717 10.7727 117.291 11.55C116.866 12.3127 116.653 13.2073 116.653 14.234C116.653 15.2607 116.859 16.17 117.269 16.962C117.695 17.7393 118.267 18.348 118.985 18.788C119.719 19.228 120.555 19.448 121.493 19.448C122.461 19.448 123.29 19.272 123.979 18.92C124.669 18.5533 125.197 18.0253 125.563 17.336C125.93 16.632 126.113 15.774 126.113 14.762L128.071 16.104L121.317 16.038V13.442H129.193V13.86C129.193 15.708 128.863 17.2553 128.203 18.502C127.543 19.734 126.634 20.6653 125.475 21.296C124.331 21.912 123.011 22.22 121.515 22.22ZM133.688 16.258V13.816L137.274 13.816C137.744 13.816 138.169 13.7207 138.55 13.53C138.932 13.3393 139.232 13.068 139.452 12.716C139.672 12.3493 139.782 11.9093 139.782 11.396C139.782 10.8973 139.672 10.4647 139.452 10.098C139.232 9.73133 138.932 9.45267 138.55 9.262C138.169 9.07133 137.744 8.976 137.274 8.976L133.688 8.976V6.534H137.582C138.565 6.534 139.445 6.732 140.222 7.128C141.014 7.524 141.638 8.08867 142.092 8.822C142.547 9.54067 142.774 10.3987 142.774 11.396C142.774 12.3933 142.547 13.2587 142.092 13.992C141.638 14.7107 141.014 15.268 140.222 15.664C139.445 16.06 138.565 16.258 137.582 16.258H133.688ZM131.488 22V6.534H134.48V22H131.488ZM148.529 22V6.864H151.543V22L148.529 22ZM143.601 9.196V6.534H156.471V9.196H143.601Z" fill="black"/>
<path d="M56.3511 40V30.284H57.6671V40H56.3511ZM64.4405 40V36.122C64.4405 35.618 64.2818 35.2027 63.9645 34.876C63.6472 34.5493 63.2365 34.386 62.7325 34.386C62.3965 34.386 62.0978 34.4607 61.8365 34.61C61.5752 34.7593 61.3698 34.9647 61.2205 35.226C61.0712 35.4873 60.9965 35.786 60.9965 36.122L60.4785 35.828C60.4785 35.324 60.5905 34.876 60.8145 34.484C61.0385 34.092 61.3512 33.784 61.7525 33.56C62.1538 33.3267 62.6065 33.21 63.1105 33.21C63.6145 33.21 64.0578 33.336 64.4405 33.588C64.8325 33.84 65.1405 34.1713 65.3645 34.582C65.5885 34.9833 65.7005 35.4127 65.7005 35.87V40H64.4405ZM59.7365 40V33.35H60.9965V40H59.7365ZM68.3464 40V30.564H69.6064V40H68.3464ZM66.7084 34.498V33.35H71.2444V34.498H66.7084ZM75.3536 40.14C74.6909 40.14 74.0936 39.9907 73.5616 39.692C73.0296 39.384 72.6096 38.9687 72.3016 38.446C71.9936 37.9233 71.8396 37.3307 71.8396 36.668C71.8396 36.0147 71.9889 35.4267 72.2876 34.904C72.5956 34.3813 73.0063 33.9707 73.5196 33.672C74.0423 33.364 74.6256 33.21 75.2696 33.21C75.8856 33.21 76.4269 33.35 76.8936 33.63C77.3696 33.91 77.7383 34.2973 77.9996 34.792C78.2703 35.2867 78.4056 35.8467 78.4056 36.472C78.4056 36.5653 78.4009 36.668 78.3916 36.78C78.3823 36.8827 78.3636 37.004 78.3356 37.144H72.7216V36.094H77.6636L77.2016 36.5C77.2016 36.052 77.1223 35.674 76.9636 35.366C76.8049 35.0487 76.5809 34.806 76.2916 34.638C76.0023 34.4607 75.6523 34.372 75.2416 34.372C74.8123 34.372 74.4343 34.4653 74.1076 34.652C73.7809 34.8387 73.5289 35.1 73.3516 35.436C73.1743 35.772 73.0856 36.1687 73.0856 36.626C73.0856 37.0927 73.1789 37.5033 73.3656 37.858C73.5523 38.2033 73.8183 38.474 74.1636 38.67C74.5089 38.8567 74.9056 38.95 75.3536 38.95C75.7269 38.95 76.0676 38.8847 76.3756 38.754C76.6929 38.6233 76.9636 38.4273 77.1876 38.166L77.9996 38.992C77.6823 39.3653 77.2903 39.65 76.8236 39.846C76.3663 40.042 75.8763 40.14 75.3536 40.14ZM79.7795 40V30.004H81.0395V40H79.7795ZM82.883 40V30.004H84.143V40H82.883ZM86.0005 40V33.35H87.2605V40H86.0005ZM86.6305 32.02C86.3972 32.02 86.2058 31.9453 86.0565 31.796C85.9072 31.6373 85.8325 31.4413 85.8325 31.208C85.8325 30.984 85.9072 30.7973 86.0565 30.648C86.2058 30.4893 86.3972 30.41 86.6305 30.41C86.8638 30.41 87.0552 30.4893 87.2045 30.648C87.3538 30.7973 87.4285 30.984 87.4285 31.208C87.4285 31.4413 87.3538 31.6373 87.2045 31.796C87.0552 31.9453 86.8638 32.02 86.6305 32.02ZM91.8754 42.926C91.194 42.926 90.5874 42.8 90.0554 42.548C89.5327 42.296 89.1127 41.9413 88.7954 41.484L89.6074 40.658C89.878 41.0033 90.2 41.2647 90.5734 41.442C90.9467 41.6287 91.39 41.722 91.9034 41.722C92.5847 41.722 93.1214 41.54 93.5134 41.176C93.9147 40.8213 94.1154 40.3407 94.1154 39.734V38.082L94.3394 36.584L94.1154 35.1V33.35H95.3754V39.734C95.3754 40.3687 95.226 40.924 94.9274 41.4C94.638 41.876 94.2274 42.2493 93.6954 42.52C93.1727 42.7907 92.566 42.926 91.8754 42.926ZM91.8754 39.888C91.2687 39.888 90.7227 39.7433 90.2374 39.454C89.7614 39.1647 89.3834 38.768 89.1034 38.264C88.8234 37.7507 88.6834 37.1767 88.6834 36.542C88.6834 35.9073 88.8234 35.3427 89.1034 34.848C89.3834 34.344 89.7614 33.9473 90.2374 33.658C90.7227 33.3593 91.2687 33.21 91.8754 33.21C92.398 33.21 92.86 33.3127 93.2614 33.518C93.6627 33.7233 93.98 34.0127 94.2134 34.386C94.456 34.75 94.5867 35.1793 94.6054 35.674V37.438C94.5774 37.9233 94.442 38.3527 94.1994 38.726C93.966 39.09 93.6487 39.3747 93.2474 39.58C92.846 39.7853 92.3887 39.888 91.8754 39.888ZM92.1274 38.698C92.538 38.698 92.8974 38.6093 93.2054 38.432C93.5227 38.2547 93.7654 38.0073 93.9334 37.69C94.1014 37.3633 94.1854 36.9853 94.1854 36.556C94.1854 36.1267 94.0967 35.7533 93.9194 35.436C93.7514 35.1093 93.5134 34.8573 93.2054 34.68C92.8974 34.4933 92.5334 34.4 92.1134 34.4C91.6934 34.4 91.3247 34.4933 91.0074 34.68C90.69 34.8573 90.438 35.1093 90.2514 35.436C90.074 35.7533 89.9854 36.122 89.9854 36.542C89.9854 36.962 90.074 37.3353 90.2514 37.662C90.438 37.9887 90.69 38.2453 91.0074 38.432C91.334 38.6093 91.7074 38.698 92.1274 38.698ZM100.305 40.14C99.6421 40.14 99.0448 39.9907 98.5128 39.692C97.9808 39.384 97.5608 38.9687 97.2528 38.446C96.9448 37.9233 96.7908 37.3307 96.7908 36.668C96.7908 36.0147 96.9401 35.4267 97.2388 34.904C97.5468 34.3813 97.9574 33.9707 98.4708 33.672C98.9934 33.364 99.5768 33.21 100.221 33.21C100.837 33.21 101.378 33.35 101.845 33.63C102.321 33.91 102.689 34.2973 102.951 34.792C103.221 35.2867 103.357 35.8467 103.357 36.472C103.357 36.5653 103.352 36.668 103.343 36.78C103.333 36.8827 103.315 37.004 103.287 37.144H97.6728V36.094H102.615L102.153 36.5C102.153 36.052 102.073 35.674 101.915 35.366C101.756 35.0487 101.532 34.806 101.243 34.638C100.953 34.4607 100.603 34.372 100.193 34.372C99.7634 34.372 99.3854 34.4653 99.0588 34.652C98.7321 34.8387 98.4801 35.1 98.3028 35.436C98.1254 35.772 98.0368 36.1687 98.0368 36.626C98.0368 37.0927 98.1301 37.5033 98.3168 37.858C98.5034 38.2033 98.7694 38.474 99.1148 38.67C99.4601 38.8567 99.8568 38.95 100.305 38.95C100.678 38.95 101.019 38.8847 101.327 38.754C101.644 38.6233 101.915 38.4273 102.139 38.166L102.951 38.992C102.633 39.3653 102.241 39.65 101.775 39.846C101.317 40.042 100.827 40.14 100.305 40.14ZM109.435 40V36.122C109.435 35.618 109.276 35.2027 108.959 34.876C108.641 34.5493 108.231 34.386 107.727 34.386C107.391 34.386 107.092 34.4607 106.831 34.61C106.569 34.7593 106.364 34.9647 106.215 35.226C106.065 35.4873 105.991 35.786 105.991 36.122L105.473 35.828C105.473 35.324 105.585 34.876 105.809 34.484C106.033 34.092 106.345 33.784 106.747 33.56C107.148 33.3267 107.601 33.21 108.105 33.21C108.609 33.21 109.052 33.336 109.435 33.588C109.827 33.84 110.135 34.1713 110.359 34.582C110.583 34.9833 110.695 35.4127 110.695 35.87V40H109.435ZM104.731 40V33.35H105.991V40H104.731ZM113.341 40V30.564H114.601V40H113.341ZM111.703 34.498V33.35H116.239V34.498H111.703ZM119.498 40L123.474 30.284H124.426L128.388 40H126.96L123.698 31.782H124.188L120.898 40H119.498ZM121.388 37.802V36.654H126.498V37.802H121.388ZM129.851 40V30.284H131.167V40H129.851ZM135.262 40L139.238 30.284H140.19L144.152 40H142.724L139.462 31.782H139.952L136.662 40H135.262ZM137.152 37.802V36.654H142.262V37.802H137.152ZM147.614 40.14C147.241 40.14 146.886 40.0933 146.55 40C146.224 39.8973 145.92 39.7573 145.64 39.58C145.36 39.3933 145.118 39.174 144.912 38.922L145.724 38.11C145.967 38.4087 146.247 38.6327 146.564 38.782C146.882 38.922 147.236 38.992 147.628 38.992C148.02 38.992 148.324 38.9267 148.538 38.796C148.753 38.656 148.86 38.4647 148.86 38.222C148.86 37.9793 148.772 37.7927 148.594 37.662C148.426 37.522 148.207 37.41 147.936 37.326C147.666 37.2327 147.376 37.144 147.068 37.06C146.77 36.9667 146.485 36.85 146.214 36.71C145.944 36.57 145.72 36.3787 145.542 36.136C145.374 35.8933 145.29 35.5713 145.29 35.17C145.29 34.7687 145.388 34.4233 145.584 34.134C145.78 33.8353 146.051 33.6067 146.396 33.448C146.751 33.2893 147.176 33.21 147.67 33.21C148.193 33.21 148.655 33.3033 149.056 33.49C149.467 33.6673 149.803 33.938 150.064 34.302L149.252 35.114C149.066 34.8713 148.832 34.6847 148.552 34.554C148.282 34.4233 147.974 34.358 147.628 34.358C147.264 34.358 146.984 34.4233 146.788 34.554C146.602 34.6753 146.508 34.848 146.508 35.072C146.508 35.296 146.592 35.4687 146.76 35.59C146.928 35.7113 147.148 35.814 147.418 35.898C147.698 35.982 147.988 36.0707 148.286 36.164C148.585 36.248 148.87 36.3647 149.14 36.514C149.411 36.6633 149.63 36.864 149.798 37.116C149.976 37.368 150.064 37.6993 150.064 38.11C150.064 38.7353 149.84 39.23 149.392 39.594C148.954 39.958 148.361 40.14 147.614 40.14ZM153.589 40.14C153.215 40.14 152.861 40.0933 152.525 40C152.198 39.8973 151.895 39.7573 151.615 39.58C151.335 39.3933 151.092 39.174 150.887 38.922L151.699 38.11C151.941 38.4087 152.221 38.6327 152.539 38.782C152.856 38.922 153.211 38.992 153.603 38.992C153.995 38.992 154.298 38.9267 154.513 38.796C154.727 38.656 154.835 38.4647 154.835 38.222C154.835 37.9793 154.746 37.7927 154.569 37.662C154.401 37.522 154.181 37.41 153.911 37.326C153.64 37.2327 153.351 37.144 153.043 37.06C152.744 36.9667 152.459 36.85 152.189 36.71C151.918 36.57 151.694 36.3787 151.517 36.136C151.349 35.8933 151.265 35.5713 151.265 35.17C151.265 34.7687 151.363 34.4233 151.559 34.134C151.755 33.8353 152.025 33.6067 152.371 33.448C152.725 33.2893 153.15 33.21 153.645 33.21C154.167 33.21 154.629 33.3033 155.031 33.49C155.441 33.6673 155.777 33.938 156.039 34.302L155.227 35.114C155.04 34.8713 154.807 34.6847 154.527 34.554C154.256 34.4233 153.948 34.358 153.603 34.358C153.239 34.358 152.959 34.4233 152.763 34.554C152.576 34.6753 152.483 34.848 152.483 35.072C152.483 35.296 152.567 35.4687 152.735 35.59C152.903 35.7113 153.122 35.814 153.393 35.898C153.673 35.982 153.962 36.0707 154.261 36.164C154.559 36.248 154.844 36.3647 155.115 36.514C155.385 36.6633 155.605 36.864 155.773 37.116C155.95 37.368 156.039 37.6993 156.039 38.11C156.039 38.7353 155.815 39.23 155.367 39.594C154.928 39.958 154.335 40.14 153.589 40.14ZM157.463 40V33.35H158.723V40H157.463ZM158.093 32.02C157.86 32.02 157.669 31.9453 157.519 31.796C157.37 31.6373 157.295 31.4413 157.295 31.208C157.295 30.984 157.37 30.7973 157.519 30.648C157.669 30.4893 157.86 30.41 158.093 30.41C158.327 30.41 158.518 30.4893 158.667 30.648C158.817 30.7973 158.891 30.984 158.891 31.208C158.891 31.4413 158.817 31.6373 158.667 31.796C158.518 31.9453 158.327 32.02 158.093 32.02ZM162.694 40.14C162.321 40.14 161.966 40.0933 161.63 40C161.304 39.8973 161 39.7573 160.72 39.58C160.44 39.3933 160.198 39.174 159.992 38.922L160.804 38.11C161.047 38.4087 161.327 38.6327 161.644 38.782C161.962 38.922 162.316 38.992 162.708 38.992C163.1 38.992 163.404 38.9267 163.618 38.796C163.833 38.656 163.94 38.4647 163.94 38.222C163.94 37.9793 163.852 37.7927 163.674 37.662C163.506 37.522 163.287 37.41 163.016 37.326C162.746 37.2327 162.456 37.144 162.148 37.06C161.85 36.9667 161.565 36.85 161.294 36.71C161.024 36.57 160.8 36.3787 160.622 36.136C160.454 35.8933 160.37 35.5713 160.37 35.17C160.37 34.7687 160.468 34.4233 160.664 34.134C160.86 33.8353 161.131 33.6067 161.476 33.448C161.831 33.2893 162.256 33.21 162.75 33.21C163.273 33.21 163.735 33.3033 164.136 33.49C164.547 33.6673 164.883 33.938 165.144 34.302L164.332 35.114C164.146 34.8713 163.912 34.6847 163.632 34.554C163.362 34.4233 163.054 34.358 162.708 34.358C162.344 34.358 162.064 34.4233 161.868 34.554C161.682 34.6753 161.588 34.848 161.588 35.072C161.588 35.296 161.672 35.4687 161.84 35.59C162.008 35.7113 162.228 35.814 162.498 35.898C162.778 35.982 163.068 36.0707 163.366 36.164C163.665 36.248 163.95 36.3647 164.22 36.514C164.491 36.6633 164.71 36.864 164.878 37.116C165.056 37.368 165.144 37.6993 165.144 38.11C165.144 38.7353 164.92 39.23 164.472 39.594C164.034 39.958 163.441 40.14 162.694 40.14ZM167.577 40V30.564H168.837V40H167.577ZM165.939 34.498V33.35H170.475V34.498H165.939ZM174.332 40.14C173.725 40.14 173.175 39.9907 172.68 39.692C172.185 39.384 171.793 38.9687 171.504 38.446C171.224 37.9233 171.084 37.3353 171.084 36.682C171.084 36.0287 171.224 35.4407 171.504 34.918C171.793 34.3953 172.181 33.98 172.666 33.672C173.161 33.364 173.716 33.21 174.332 33.21C174.836 33.21 175.284 33.3173 175.676 33.532C176.077 33.7373 176.399 34.0267 176.642 34.4C176.885 34.764 177.02 35.1887 177.048 35.674V37.676C177.02 38.152 176.885 38.5767 176.642 38.95C176.409 39.3233 176.091 39.6173 175.69 39.832C175.298 40.0373 174.845 40.14 174.332 40.14ZM174.542 38.95C175.167 38.95 175.671 38.74 176.054 38.32C176.437 37.8907 176.628 37.3447 176.628 36.682C176.628 36.2247 176.539 35.828 176.362 35.492C176.194 35.1467 175.951 34.8807 175.634 34.694C175.317 34.498 174.948 34.4 174.528 34.4C174.108 34.4 173.735 34.498 173.408 34.694C173.091 34.89 172.839 35.1607 172.652 35.506C172.475 35.842 172.386 36.2293 172.386 36.668C172.386 37.116 172.475 37.5127 172.652 37.858C172.839 38.194 173.095 38.46 173.422 38.656C173.749 38.852 174.122 38.95 174.542 38.95ZM176.544 40V38.208L176.782 36.584L176.544 34.974V33.35H177.818V40H176.544ZM184.357 40V36.122C184.357 35.618 184.198 35.2027 183.881 34.876C183.563 34.5493 183.153 34.386 182.649 34.386C182.313 34.386 182.014 34.4607 181.753 34.61C181.491 34.7593 181.286 34.9647 181.137 35.226C180.987 35.4873 180.913 35.786 180.913 36.122L180.395 35.828C180.395 35.324 180.507 34.876 180.731 34.484C180.955 34.092 181.267 33.784 181.669 33.56C182.07 33.3267 182.523 33.21 183.027 33.21C183.531 33.21 183.974 33.336 184.357 33.588C184.749 33.84 185.057 34.1713 185.281 34.582C185.505 34.9833 185.617 35.4127 185.617 35.87V40H184.357ZM179.653 40V33.35H180.913V40H179.653ZM188.262 40V30.564H189.522V40H188.262ZM186.624 34.498V33.35H191.16V34.498H186.624Z" fill="#7100DE"/>
<rect y="0.373047" width="44.8326" height="44.8326" rx="12" fill="url(#paint0_linear_8977_4661)"/>
<path fill-rule="evenodd" clip-rule="evenodd" d="M17.1395 32.186L26.1044 23.2179C27.518 21.8038 27.5147 19.5106 26.097 18.1005C24.6853 16.6964 22.4039 16.6985 20.9949 18.1054L12.0213 27.0648C10.6057 28.4783 10.6048 30.772 12.0193 32.1865C13.4333 33.6005 15.7258 33.6003 17.1395 32.186ZM20.9824 20.6608L23.5436 23.2219L24.8241 21.9413C25.5314 21.2341 25.5314 20.0874 24.8241 19.3802C24.1169 18.673 22.9703 18.673 22.263 19.3802L20.9824 20.6608Z" fill="white"/>
<path d="M15.551 12.8463C15.6361 12.5304 16.0842 12.5304 16.1693 12.8463L16.6272 14.5469C16.6568 14.6571 16.7429 14.7431 16.8531 14.7728L18.5537 15.2307C18.8696 15.3157 18.8696 15.7639 18.5537 15.849L16.8531 16.3068C16.7429 16.3365 16.6568 16.4226 16.6272 16.5327L16.1693 18.2334C16.0842 18.5493 15.6361 18.5493 15.551 18.2334L15.0931 16.5327C15.0635 16.4226 14.9774 16.3365 14.8672 16.3068L13.1666 15.849C12.8507 15.7639 12.8507 15.3157 13.1666 15.2307L14.8672 14.7728C14.9774 14.7431 15.0635 14.6571 15.0931 14.5469L15.551 12.8463Z" fill="white"/>
<path d="M28.3577 11.567C28.4427 11.2511 28.8909 11.2511 28.9759 11.567L29.4338 13.2676C29.4634 13.3778 29.5496 13.4638 29.6597 13.4935L31.3603 13.9514C31.6762 14.0364 31.6762 14.4846 31.3603 14.5697L29.6597 15.0275C29.5496 15.0572 29.4634 15.1433 29.4338 15.2535L28.9759 16.9541C28.8909 17.27 28.4427 17.27 28.3577 16.9541L27.8997 15.2535C27.8702 15.1433 27.7841 15.0572 27.6738 15.0275L25.9733 14.5697C25.6573 14.4846 25.6573 14.0364 25.9733 13.9514L27.6738 13.4935C27.7841 13.4638 27.8702 13.3778 27.8997 13.2676L28.3577 11.567Z" fill="white"/>
<path d="M29.637 23.0944C29.722 22.7784 30.1702 22.7784 30.2552 23.0944L30.7131 24.7949C30.7427 24.9052 30.8289 24.9912 30.939 25.0208L32.6396 25.4788C32.9555 25.5638 32.9555 26.012 32.6396 26.097L30.939 26.5549C30.8289 26.5845 30.7427 26.6706 30.7131 26.7808L30.2552 28.4814C30.1702 28.7973 29.722 28.7973 29.637 28.4814L29.179 26.7808C29.1494 26.6706 29.0634 26.5845 28.9531 26.5549L27.2526 26.097C26.9366 26.012 26.9366 25.5638 27.2526 25.4788L28.9531 25.0208C29.0634 24.9912 29.1494 24.9052 29.179 24.7949L29.637 23.0944Z" fill="white"/>
<defs>
<linearGradient id="paint0_linear_8977_4661" x1="50.8103" y1="16.8117" x2="-2.98884" y2="27.2726" gradientUnits="userSpaceOnUse">
<stop stop-color="#4080F6"/>
<stop offset="1" stop-color="#A356F7"/>
</linearGradient>
</defs>
</svg>
