<svg width="16" height="16" viewBox="0 0 16 16" fill="none" xmlns="http://www.w3.org/2000/svg">
<path d="M9.2489 1.39807V3.0509C9.2489 3.6159 8.98696 3.88769 8.44142 3.88769C7.89589 3.88769 7.63395 3.6159 7.63395 3.0509V1.39807C7.63395 0.853821 7.89589 0.582031 8.44142 0.582031C8.98696 0.582031 9.2489 0.853821 9.2489 1.39807ZM10.8862 3.57373L11.8907 2.21411C12.2183 1.79571 12.6332 1.71204 13.0474 2.00458C13.4616 2.29712 13.5056 2.67401 13.1787 3.13458L12.1742 4.47345C11.8466 4.93402 11.4541 4.97552 11.0175 4.68298C10.6026 4.38977 10.5593 4.0343 10.8862 3.5744V3.57373ZM4.9922 2.23486L6.0183 3.57373C6.3459 4.0343 6.3019 4.38977 5.86533 4.68231C5.45042 4.99628 5.05786 4.93335 4.73026 4.47278L3.70415 3.13391C3.37655 2.67334 3.42055 2.31787 3.85712 2.02533C4.27203 1.71137 4.6646 1.77429 4.9922 2.23486ZM8.44142 4.82892C10.319 4.82892 11.8466 6.29364 11.8466 8.09241C11.8466 9.87042 10.3183 11.3144 8.44142 11.3144C6.56454 11.3144 5.0362 9.87109 5.0362 8.09241C5.0362 6.29297 6.56454 4.82892 8.44142 4.82892ZM2.06754 5.28949L3.7265 5.79156C4.27203 5.95892 4.46901 6.27289 4.29439 6.77496C4.14141 7.27704 3.77051 7.42364 3.20262 7.25629L1.58697 6.75421C1.04144 6.58685 0.844458 6.25213 0.997432 5.75006C1.17206 5.26874 1.52201 5.12213 2.06754 5.28949ZM13.178 5.79156L14.8153 5.28949C15.3832 5.12213 15.7324 5.26874 15.8847 5.75006C16.0593 6.25213 15.8631 6.58685 15.2952 6.73346L13.6795 7.25629C13.134 7.42364 12.7847 7.27704 12.6101 6.77496C12.4571 6.27289 12.6318 5.95892 13.178 5.79156ZM8.44142 9.89184C9.48919 9.89184 10.3407 9.07581 10.3407 8.09241C10.3407 7.08826 9.48919 6.27222 8.44142 6.27222C7.39366 6.27222 6.56384 7.08826 6.56384 8.09241C6.56384 9.07581 7.39366 9.89184 8.44142 9.89184ZM1.58697 9.41052L3.22427 8.90845C3.76981 8.74109 4.14141 8.86627 4.29369 9.36902C4.46831 9.87109 4.27203 10.1851 3.7258 10.3524L2.06685 10.8752C1.52131 11.0426 1.17206 10.896 0.997432 10.3939C0.844458 9.89184 1.04144 9.57788 1.58697 9.41052ZM13.6802 8.90845L15.3175 9.41052C15.8631 9.57788 16.06 9.89184 15.8854 10.3939C15.7324 10.896 15.3832 11.0426 14.816 10.8752L13.1787 10.3524C12.6108 10.1851 12.4585 9.87109 12.6108 9.36902C12.7854 8.86694 13.1347 8.74109 13.6802 8.90845ZM3.70485 13.0087L4.73095 11.6906C5.05855 11.23 5.45111 11.1678 5.86603 11.4811C6.3026 11.7743 6.3466 12.1298 6.019 12.5897L4.99289 13.9078C4.66529 14.3683 4.27273 14.452 3.83617 14.1588C3.42125 13.8656 3.37794 13.4693 3.70485 13.0087ZM12.1742 11.6906L13.1787 13.0087C13.5063 13.4693 13.4623 13.8663 13.0474 14.1595C12.6325 14.4527 12.2176 14.3476 11.8907 13.9292L10.8862 12.5903C10.5586 12.1298 10.6026 11.7743 11.0175 11.4817C11.4541 11.1885 11.8473 11.23 12.1742 11.6906ZM9.2489 13.0924V14.7452C9.2489 15.3102 8.98696 15.582 8.44142 15.582C7.89589 15.582 7.63395 15.3102 7.63395 14.7452V13.0924C7.63395 12.5274 7.89589 12.2556 8.44142 12.2556C8.98696 12.2556 9.2489 12.5274 9.2489 13.0924Z" fill="white"/>
</svg>
