<svg width="37" height="37" viewBox="0 0 37 37" fill="none" xmlns="http://www.w3.org/2000/svg">
<circle cx="18.1664" cy="18.685" r="17.433" fill="#50319A" stroke="#6F54B0"/>
<path d="M17.5928 20.1953H18.749C22.0069 20.1954 24.6484 22.8369 24.6484 26.0947C24.6484 26.1376 24.6384 26.1434 24.6436 26.1357C24.6457 26.1326 24.6435 26.1391 24.624 26.1494C24.6035 26.1602 24.5771 26.1676 24.5527 26.1729C24.5372 26.1703 24.5237 26.1654 24.5127 26.1553L24.502 26.1455L24.4902 26.1357L24.4883 26.1338L24.4854 26.1064L24.4844 26.0938V26.0908C24.4824 22.9245 21.9151 20.3584 18.749 20.3584H17.5928C14.4248 20.3584 11.8564 22.9268 11.8564 26.0947C11.8564 26.1325 11.8491 26.1414 11.8516 26.1367C11.8502 26.138 11.8476 26.14 11.8438 26.1426C11.8317 26.1506 11.8124 26.1596 11.7881 26.167C11.7773 26.1703 11.7671 26.1711 11.7588 26.1729C11.7217 26.1651 11.6935 26.1338 11.6934 26.0947L11.6943 26.0811L11.6934 26.0801C11.7011 22.8288 14.3396 20.1953 17.5928 20.1953Z" fill="white" stroke="white"/>
<path d="M18.1631 13.2051C19.4943 13.2051 20.5752 14.286 20.5752 15.6172C20.5752 16.9484 19.4943 18.0293 18.1631 18.0293C16.8319 18.0293 15.751 16.9484 15.751 15.6172C15.751 14.286 16.8319 13.2051 18.1631 13.2051ZM18.1631 13.3682C16.9219 13.3682 15.9141 14.376 15.9141 15.6172C15.9141 16.8584 16.9219 17.8662 18.1631 17.8662C19.4043 17.8662 20.4121 16.8584 20.4121 15.6172C20.4121 14.376 19.4043 13.3682 18.1631 13.3682Z" fill="white" stroke="white"/>
</svg>
